# xmcd
#
# Track frame offsets:
#	150
#	8373
#	20560
#	32865
#	42766
#	56345
#	68875
#	79714
#	89048
#	102193
#	111395
#	125901
#	138134
#	148599
#	161767
#	172303
#	183615
#	196658
#	206956
#	216565
#	228277
#	237792
#	249524
#	260047
#	271797
#
# Disc length: 3806 seconds
#
# Revision: 2
# Processed by: cddbd v1.5.2PL0 Copyright (c) Steve Scherf et al.
# Submitted via: audiograbber 1.83.01
#
DISCID=710edc19
DTITLE=Ruth Brown - The Very Best Of  [CD2)
DYEAR=2015
DGENRE=Oldies
TTITLE0=This Little Girl s Gone Rockin
TTITLE1=Mambo Baby
TTITLE2=As Long As I m Moving
TTITLE3=Honey Boy
TTITLE4=I Can See Everybody s Baby
TTITLE5=I Burned Your Letter
TTITLE6=Why Me
TTITLE7=Love, Love, Love
TTITLE8=Oh What A Dream
TTITLE9=Please Accept My Love
TTITLE10=Shake A Hand
TTITLE11=I Hope We Meet Again (On The Road)
TTITLE12=Look Me Up
TTITLE13=Daddy Daddy
TTITLE14=Takin Care Of Business
TTITLE15=Wild Wild Young Men
TTITLE16=Love Has Joined Us Together
TTITLE17=Don t Deceive Me
TTITLE18=A New Love
TTITLE19=So Long
TTITLE20=The Treasure Of Love
TTITLE21=I ll Wait For You
TTITLE22=Why Don t You Write Me
TTITLE23=Sentimental Journey
TTITLE24=(Mama) He Treats Your Daughter Mean  (1962 Version)
EXTD=
EXTT0=
EXTT1=
EXTT2=
EXTT3=
EXTT4=
EXTT5=
EXTT6=
EXTT7=
EXTT8=
EXTT9=
EXTT10=
EXTT11=
EXTT12=
EXTT13=
EXTT14=
EXTT15=
EXTT16=
EXTT17=
EXTT18=
EXTT19=
EXTT20=
EXTT21=
EXTT22=
EXTT23=
EXTT24=
PLAYORDER=
